<svg xmlns="http://www.w3.org/2000/svg" viewBox="0 0 80 32"><path d="M20.034 2.79c-5.477 0-6.505 7.829-3.423 7.829 3.08 0 8.9-7.829 3.423-7.829M10.94 9.649c1.64.1 3.44-6.283.357-5.882-3.082.402-1.998 5.781-.357 5.882M3.42 13.615c1.167-.515.15-5.557-1.834-4.182-1.983 1.376.667 4.698 1.834 4.182m3.288-2.638C8.097 10.692 8.173 4.975 5.696 6c-2.478 1.026-.376 5.261 1.012 4.977m7.253 12.795c.247 1.889-1.38 2.822-2.974 1.604-5.074-3.876 8.4-5.81 7.512-11.105-.738-4.396-14.177-3.043-15.708 3.835-1.036 4.652 4.265 11.106 9.795 11.106 2.72 0 5.859-2.466 6.446-5.589.448-2.381-5.276-1.427-5.07.149"/><path d="M48.022 12.044c-1.38.037-2.469.535-3.27 1.489-.83.993-1.247 2.365-1.247 4.114 0 1.745.418 3.113 1.247 4.106.834.993 1.978 1.489 3.438 1.489 1.464 0 2.611-.496 3.441-1.49.83-.992 1.244-2.36 1.244-4.105 0-1.75-.414-3.121-1.244-4.114-.83-.993-1.977-1.489-3.44-1.489-.058 0-.113-.002-.17 0m.104 2.016h.065c.72 0 1.278.312 1.672.939.395.626.594 1.51.594 2.648 0 1.133-.2 2.01-.594 2.637-.394.627-.952.942-1.672.942-.716 0-1.269-.315-1.663-.942-.395-.626-.594-1.504-.594-2.637 0-1.137.2-2.022.594-2.648.382-.607.914-.92 1.598-.94M32.44 22.23c-1.215 1.025-3.023 1.013-3.776 1.013q-2.275 0-3.605-1.504-1.33-1.511-1.33-4.092 0-2.61 1.355-4.106 1.354-1.497 3.708-1.497.91 0 1.739.203.835.202 1.573.6l-.631 1.874a6.427 6.427 0 0 0-.887-.407q-.75-.253-1.507-.253-1.403 0-2.165.933-.757.925-.757 2.653 0 1.713.732 2.646c.488.622 1.222.933 2.08.933.873 0 1.413-.221 1.701-.453v-1.868h-1.89v-1.865h3.66m1.605-4.8h1.482l4.681 6.486v-6.487h1.998v10.794h-1.481l-4.682-6.487v6.487h-1.998zm20.371 0h2.99l2.073 6.738 2.086-6.739h2.527l1.14 10.794h-2.22l-.684-6.75-2.099 6.782h-1.488l-2.098-7.01-.685 6.978h-2.226l1.14-10.794m11.963 0h6.338v2.104h-3.99v2.239h3.067v1.875h-3.066v2.472h4.123v2.104h-6.472z"/><path d="M75.25 10.114h1.728v.233h-.725v1.816h-.277v-1.816h-.726zm2.018 0h.412l.521 1.394.524-1.394h.412v2.05h-.27v-1.8l-.526 1.405h-.278l-.527-1.406v1.8h-.268z" aria-label="TM" /></svg>
